<mxfile host="app.diagrams.net" modified="2023-12-18T13:09:06.104Z" agent="Mozilla/5.0 (Windows NT 10.0; Win64; x64) AppleWebKit/537.36 (KHTML, like Gecko) Chrome/119.0.0.0 Safari/537.36 OPR/105.0.0.0" etag="D0mtxTgBWbcLZ-4jB9GH" version="22.1.11" type="github">
  <diagram name="Page-1" id="h98hHJG69UWJ3FzKAG8Z">
    <mxGraphModel dx="1009" dy="542" grid="1" gridSize="10" guides="1" tooltips="1" connect="1" arrows="1" fold="1" page="1" pageScale="1" pageWidth="850" pageHeight="1100" math="0" shadow="0">
      <root>
        <mxCell id="0" />
        <mxCell id="1" parent="0" />
        <mxCell id="NrE9wgE44GSuKXMdwOpV-3" value="" style="edgeStyle=orthogonalEdgeStyle;rounded=0;orthogonalLoop=1;jettySize=auto;html=1;" edge="1" parent="1" source="NrE9wgE44GSuKXMdwOpV-1" target="NrE9wgE44GSuKXMdwOpV-2">
          <mxGeometry relative="1" as="geometry" />
        </mxCell>
        <mxCell id="NrE9wgE44GSuKXMdwOpV-1" value="Start" style="strokeWidth=2;html=1;shape=mxgraph.flowchart.terminator;whiteSpace=wrap;" vertex="1" parent="1">
          <mxGeometry x="70" y="70" width="80" height="40" as="geometry" />
        </mxCell>
        <mxCell id="NrE9wgE44GSuKXMdwOpV-5" value="" style="edgeStyle=orthogonalEdgeStyle;rounded=0;orthogonalLoop=1;jettySize=auto;html=1;" edge="1" parent="1" source="NrE9wgE44GSuKXMdwOpV-2" target="NrE9wgE44GSuKXMdwOpV-4">
          <mxGeometry relative="1" as="geometry" />
        </mxCell>
        <mxCell id="NrE9wgE44GSuKXMdwOpV-2" value="get const_a" style="shape=parallelogram;perimeter=parallelogramPerimeter;whiteSpace=wrap;html=1;fixedSize=1;strokeWidth=2;" vertex="1" parent="1">
          <mxGeometry x="50" y="150" width="120" height="60" as="geometry" />
        </mxCell>
        <mxCell id="NrE9wgE44GSuKXMdwOpV-7" value="" style="edgeStyle=orthogonalEdgeStyle;rounded=0;orthogonalLoop=1;jettySize=auto;html=1;" edge="1" parent="1" source="NrE9wgE44GSuKXMdwOpV-4" target="NrE9wgE44GSuKXMdwOpV-6">
          <mxGeometry relative="1" as="geometry" />
        </mxCell>
        <mxCell id="NrE9wgE44GSuKXMdwOpV-4" value="get const_b" style="shape=parallelogram;perimeter=parallelogramPerimeter;whiteSpace=wrap;html=1;fixedSize=1;strokeWidth=2;" vertex="1" parent="1">
          <mxGeometry x="50" y="240" width="120" height="60" as="geometry" />
        </mxCell>
        <mxCell id="NrE9wgE44GSuKXMdwOpV-9" value="" style="edgeStyle=orthogonalEdgeStyle;rounded=0;orthogonalLoop=1;jettySize=auto;html=1;" edge="1" parent="1" source="NrE9wgE44GSuKXMdwOpV-6" target="NrE9wgE44GSuKXMdwOpV-8">
          <mxGeometry relative="1" as="geometry" />
        </mxCell>
        <mxCell id="NrE9wgE44GSuKXMdwOpV-6" value="get const_c" style="shape=parallelogram;perimeter=parallelogramPerimeter;whiteSpace=wrap;html=1;fixedSize=1;strokeWidth=2;" vertex="1" parent="1">
          <mxGeometry x="50" y="330" width="120" height="60" as="geometry" />
        </mxCell>
        <mxCell id="NrE9wgE44GSuKXMdwOpV-11" value="" style="edgeStyle=orthogonalEdgeStyle;rounded=0;orthogonalLoop=1;jettySize=auto;html=1;" edge="1" parent="1" source="NrE9wgE44GSuKXMdwOpV-8" target="NrE9wgE44GSuKXMdwOpV-10">
          <mxGeometry relative="1" as="geometry" />
        </mxCell>
        <mxCell id="NrE9wgE44GSuKXMdwOpV-8" value="quadraticRoots" style="shape=process;whiteSpace=wrap;html=1;backgroundOutline=1;strokeWidth=2;" vertex="1" parent="1">
          <mxGeometry x="50" y="420" width="120" height="60" as="geometry" />
        </mxCell>
        <mxCell id="NrE9wgE44GSuKXMdwOpV-10" value="Stop" style="strokeWidth=2;html=1;shape=mxgraph.flowchart.terminator;whiteSpace=wrap;" vertex="1" parent="1">
          <mxGeometry x="70" y="510" width="80" height="40" as="geometry" />
        </mxCell>
        <mxCell id="NrE9wgE44GSuKXMdwOpV-12" value="quadraticRoots" style="strokeWidth=2;html=1;shape=mxgraph.flowchart.terminator;whiteSpace=wrap;" vertex="1" parent="1">
          <mxGeometry x="220" y="70" width="100" height="40" as="geometry" />
        </mxCell>
      </root>
    </mxGraphModel>
  </diagram>
</mxfile>
